<?xml version="1.0" standalone="no"?>
<!DOCTYPE svg PUBLIC "-//W3C//DTD SVG 20010904//EN"
 "http://www.w3.org/TR/2001/REC-SVG-20010904/DTD/svg10.dtd">
<svg version="1.0" xmlns="http://www.w3.org/2000/svg"
 width="640.000000pt" height="512.000000pt" viewBox="0 0 640.000000 512.000000"
 preserveAspectRatio="xMidYMid meet">

<g transform="translate(0.000000,512.000000) scale(0.100000,-0.100000)"
fill="#000000" stroke="none">
<path d="M0 2560 l0 -2560 3200 0 3200 0 0 2560 0 2560 -3200 0 -3200 0 0
-2560z m3830 -197 c-19 -8 -43 -19 -52 -24 -13 -7 -16 -5 -12 6 4 8 18 18 33
21 14 3 31 7 36 9 29 10 25 2 -5 -12z m-42 -124 c-1 -17 -6 -33 -10 -35 -4 -3
-8 -11 -8 -17 0 -7 7 -4 14 6 8 10 24 20 37 22 12 3 27 10 32 17 7 10 10 10
14 1 7 -18 43 -16 43 2 0 8 5 15 10 15 6 0 10 -4 10 -10 0 -5 8 -10 18 -10 9
-1 39 -30 66 -66 42 -55 49 -72 52 -116 2 -42 -4 -63 -28 -110 -16 -32 -34
-58 -40 -58 -5 0 -7 -3 -5 -7 3 -5 -17 -6 -44 -5 -52 4 -70 -14 -21 -21 22 -3
20 -4 -10 -6 -26 -1 -38 3 -38 12 0 8 -20 24 -43 36 -26 13 -54 39 -68 62 -13
21 -27 39 -31 39 -3 0 -5 20 -5 45 1 25 0 45 -3 45 -3 -1 -24 -42 -48 -92 -43
-93 -62 -111 -43 -41 6 21 11 52 11 68 0 23 3 27 10 15 8 -12 10 -11 10 8 0
12 6 33 14 45 8 12 17 41 21 64 4 28 11 40 19 37 8 -3 18 8 26 28 13 33 29 58
36 58 3 0 3 -14 2 -31z m-819 -309 c5 0 6 -11 4 -24 -3 -13 0 -27 6 -30 17
-11 13 -36 -4 -30 -16 7 -29 45 -28 82 1 33 5 39 10 20 2 -10 8 -18 12 -18z
m-19 -301 c0 -6 -4 -7 -10 -4 -5 3 -10 11 -10 16 0 6 5 7 10 4 6 -3 10 -11 10
-16z"/>
</g>
</svg>
